<svg class="lds-gear" width="128px"  height="128px"  xmlns="http://www.w3.org/2000/svg" xmlns:xlink="http://www.w3.org/1999/xlink" viewBox="0 0 100 100" preserveAspectRatio="xMidYMid" style="background: none;"><g transform="translate(50 50)">
<g transform="rotate(288)">
<animateTransform attributeName="transform" type="rotate" values="0;360" keyTimes="0;1" dur="1s" repeatCount="indefinite"></animateTransform><path d="M34.64101615137754 -5 L47.64101615137754 -5 L47.64101615137754 5 L34.64101615137754 5 A35 35 0 0 1 30.96409703034384 16.31639344633035 L30.96409703034384 16.31639344633035 L41.48131795721815 23.9576017261325 L35.60346543429342 32.047771669881975 L25.086244507419103 24.406563390079825 A35 35 0 0 1 15.459945274668469 31.400479169978542 L15.459945274668469 31.400479169978542 L19.477166201542786 43.764213881815536 L9.966601038591248 46.85438382556501 L5.949380111716931 34.49064911372801 A35 35 0 0 1 -5.949380111716927 34.49064911372802 L-5.949380111716927 34.49064911372802 L-9.966601038591243 46.854383825565016 L-19.47716620154278 43.764213881815536 L-15.459945274668465 31.400479169978542 A35 35 0 0 1 -25.086244507419103 24.40656339007983 L-25.086244507419103 24.40656339007983 L-35.60346543429342 32.04777166988198 L-41.48131795721815 23.957601726132502 L-30.964097030343837 16.316393446330352 A35 35 0 0 1 -34.64101615137754 5.000000000000004 L-34.64101615137754 5.000000000000004 L-47.64101615137754 5.000000000000006 L-47.64101615137754 -4.999999999999995 L-34.64101615137754 -4.9999999999999964 A35 35 0 0 1 -30.96409703034384 -16.316393446330345 L-30.96409703034384 -16.316393446330345 L-41.48131795721816 -23.957601726132495 L-35.603465434293426 -32.04777166988197 L-25.086244507419106 -24.40656339007982 A35 35 0 0 1 -15.459945274668458 -31.400479169978546 L-15.459945274668458 -31.400479169978546 L-19.477166201542776 -43.76421388181554 L-9.96660103859127 -46.85438382556501 L-5.949380111716951 -34.49064911372801 A35 35 0 0 1 5.9493801117169385 -34.49064911372801 L5.9493801117169385 -34.49064911372801 L9.966601038591254 -46.85438382556501 L19.47716620154276 -43.76421388181555 L15.459945274668447 -31.40047916997855 A35 35 0 0 1 25.086244507419106 -24.40656339007982 L25.086244507419106 -24.40656339007982 L35.60346543429342 -32.047771669881975 L41.48131795721814 -23.957601726132523 L30.964097030343826 -16.31639344633037 A35 35 0 0 1 34.64101615137754 -4.999999999999994 M0 -20A20 20 0 1 0 0 20 A20 20 0 1 0 0 -20" fill="#f9ba05"></path></g></g></svg>