<svg width="980" height="534" viewBox="0 0 980 534" fill="none" xmlns="http://www.w3.org/2000/svg">
<rect opacity="0.8" x="53.709" y="291.531" width="67.8964" height="67.8964" stroke="#E73131" stroke-width="8"/>
<rect opacity="0.7" x="252.667" y="216.094" width="42.165" height="42.165" stroke="#E73131" stroke-width="6"/>
<rect opacity="0.5" x="113.51" y="165.969" width="37.3269" height="37.3269" stroke="#E73131" stroke-width="5"/>
<rect opacity="0.2" x="48.2891" y="1.5" width="18.8932" height="18.8932" stroke="#E73131" stroke-width="3"/>
<rect opacity="0.4" x="2.08398" y="107.087" width="29.5696" height="29.5696" stroke="#E73131" stroke-width="4"/>
<rect opacity="0.3" x="190.365" y="51.6246" width="23.7314" height="23.7314" stroke="#E73131" stroke-width="4"/>
<rect opacity="0.9" x="259.045" y="361.129" width="84.8706" height="84.8706" stroke="#E73131" stroke-width="10"/>
<rect opacity="0.8" x="-4" y="4" width="78.7751" height="78.7751" transform="matrix(-1 0 0 1 915.093 346.744)" stroke="#E73131" stroke-width="8"/>
<rect opacity="0.7" x="-3" y="3" width="49.0688" height="49.0688" transform="matrix(-1 0 0 1 688.474 261.638)" stroke="#E73131" stroke-width="6"/>
<rect opacity="0.5" x="-2.5" y="2.5" width="43.3938" height="43.3938" transform="matrix(-1 0 0 1 848.006 204.9)" stroke="#E73131" stroke-width="5"/>
<rect opacity="0.2" x="-1.5" y="1.5" width="22.0313" height="22.0313" transform="matrix(-1 0 0 1 923.432 18)" stroke="#E73131" stroke-width="3"/>
<rect opacity="0.4" x="-2" y="2" width="34.3813" height="34.3813" transform="matrix(-1 0 0 1 975.831 138.15)" stroke="#E73131" stroke-width="4"/>
<rect opacity="0.3" x="-2" y="2" width="27.7063" height="27.7063" transform="matrix(-1 0 0 1 760.562 74.7376)" stroke="#E73131" stroke-width="4"/>
<rect opacity="0.9" x="-5" y="5" width="98.4689" height="98.4689" transform="matrix(-1 0 0 1 679.469 425.175)" stroke="#E73131" stroke-width="10"/>
</svg>
