<svg width="158" height="55" viewBox="0 0 158 55" fill="none" xmlns="http://www.w3.org/2000/svg">
<path d="M13.9369 9.52V34H6.29688V9.52H1.77688V3.92H18.4569V9.52H13.9369ZM29.4713 32.12C28.9913 32.8133 28.4179 33.3733 27.7513 33.8C27.0846 34.2267 26.2979 34.44 25.3913 34.44C23.7913 34.44 22.5246 34.0267 21.5913 33.2C20.6846 32.3733 20.2313 31.1867 20.2313 29.64V25.96C20.2313 25.0533 20.3246 24.2933 20.5113 23.68C20.6979 23.04 20.9913 22.4933 21.3913 22.04C21.7913 21.56 22.3113 21.1333 22.9513 20.76C23.5913 20.3867 24.3779 19.9867 25.3113 19.56L28.3913 18.16C28.7913 17.9733 29.0713 17.7067 29.2313 17.36C29.3913 17.0133 29.4713 16.68 29.4713 16.36V15.04C29.4713 14.4267 29.3779 13.9867 29.1913 13.72C29.0313 13.4267 28.7246 13.28 28.2713 13.28C27.7913 13.28 27.4713 13.4533 27.3113 13.8C27.1779 14.12 27.1113 14.5067 27.1113 14.96V17.76H20.2313V16.68C20.2313 14.0133 20.9513 12.0533 22.3913 10.8C23.8579 9.52 25.9246 8.88 28.5913 8.88C30.3779 8.88 31.8046 9.09333 32.8713 9.52C33.9379 9.94667 34.7646 10.5467 35.3513 11.32C35.9379 12.0933 36.3246 13.0133 36.5113 14.08C36.6979 15.1467 36.7913 16.3067 36.7913 17.56V34H30.1513L29.7513 32.12H29.4713ZM29.4313 22.76C28.6846 23.1067 28.1113 23.5067 27.7113 23.96C27.3113 24.4133 27.1113 24.9333 27.1113 25.52V27.88C27.1113 28.3867 27.1646 28.88 27.2713 29.36C27.3779 29.84 27.7379 30.08 28.3513 30.08C28.6179 30.08 28.8179 30.0133 28.9513 29.88C29.1113 29.72 29.2179 29.52 29.2713 29.28C29.3513 29.04 29.3913 28.7867 29.3913 28.52C29.4179 28.2533 29.4313 28 29.4313 27.76V22.76ZM49.7263 13.96V34H42.5263V13.96H38.8063V9.32H53.4463V13.96H49.7263ZM83.0359 25.92C83.0359 27.6533 82.7693 29.08 82.2359 30.2C81.7026 31.2933 81.0093 32.16 80.1559 32.8C79.3293 33.4133 78.3959 33.84 77.3559 34.08C76.3159 34.32 75.2759 34.44 74.2359 34.44C72.5559 34.44 71.1426 34.2267 69.9959 33.8C68.8759 33.3467 67.9693 32.7067 67.2759 31.88C66.6093 31.0533 66.1293 30.0667 65.8359 28.92C65.5426 27.7733 65.3959 26.48 65.3959 25.04V21H63.1159V34H55.4759V3.92H63.1159V15.36H65.3959V12.2C65.3959 11.6933 65.4226 11.12 65.4759 10.48C65.5293 9.84 65.6626 9.2 65.8759 8.56C66.0893 7.92 66.3826 7.29333 66.7559 6.68C67.1293 6.06667 67.6493 5.53333 68.3159 5.08C68.9826 4.6 69.7959 4.21333 70.7559 3.92C71.7159 3.62667 72.8759 3.48 74.2359 3.48C75.5426 3.48 76.7426 3.64 77.8359 3.96C78.9293 4.28 79.8493 4.8 80.5959 5.52C81.3693 6.21333 81.9693 7.12 82.3959 8.24C82.8226 9.33333 83.0359 10.6533 83.0359 12.2V25.92ZM75.3959 10.8C75.3959 10.56 75.3826 10.3067 75.3559 10.04C75.3559 9.77333 75.3159 9.53333 75.2359 9.32C75.1826 9.10667 75.0759 8.93333 74.9159 8.8C74.7559 8.64 74.5293 8.56 74.2359 8.56C73.9426 8.56 73.7159 8.62667 73.5559 8.76C73.3959 8.89333 73.2759 9.08 73.1959 9.32C73.1159 9.53333 73.0626 9.77333 73.0359 10.04C73.0359 10.28 73.0359 10.52 73.0359 10.76V26.92C73.0359 27.16 73.0359 27.4267 73.0359 27.72C73.0626 27.9867 73.1159 28.24 73.1959 28.48C73.2759 28.6933 73.3959 28.88 73.5559 29.04C73.7426 29.1733 73.9826 29.24 74.2759 29.24C74.5426 29.24 74.7426 29.1733 74.8759 29.04C75.0359 28.88 75.1559 28.6933 75.2359 28.48C75.3159 28.24 75.3559 27.9867 75.3559 27.72C75.3826 27.4267 75.3959 27.16 75.3959 26.92V10.8ZM93.2219 11.04C93.8085 10.3733 94.4219 9.85333 95.0619 9.48C95.7285 9.08 96.5419 8.88 97.5019 8.88C98.4885 8.88 99.3152 9.05333 99.9819 9.4C100.649 9.72 101.182 10.1733 101.582 10.76C101.982 11.32 102.262 11.9867 102.422 12.76C102.609 13.5067 102.702 14.32 102.702 15.2V26.84C102.702 27.8 102.635 28.7333 102.502 29.64C102.395 30.5467 102.155 31.36 101.782 32.08C101.409 32.8 100.875 33.3733 100.182 33.8C99.4885 34.2267 98.5685 34.44 97.4219 34.44C96.4885 34.44 95.7152 34.28 95.1019 33.96C94.5152 33.6133 93.9419 33.12 93.3819 32.48L93.1819 32.6V39.44H85.8619V9.32H92.6619L93.0619 10.92L93.2219 11.04ZM95.3819 15.64C95.3819 15.2133 95.3285 14.7733 95.2219 14.32C95.1152 13.8667 94.8219 13.64 94.3419 13.64C93.8619 13.64 93.5419 13.8667 93.3819 14.32C93.2485 14.7467 93.1819 15.1867 93.1819 15.64V27.44C93.1819 27.68 93.1952 27.9333 93.2219 28.2C93.2485 28.44 93.3019 28.6667 93.3819 28.88C93.4619 29.0933 93.5685 29.2667 93.7019 29.4C93.8619 29.5333 94.0752 29.6 94.3419 29.6C94.6085 29.6 94.8085 29.5333 94.9419 29.4C95.0752 29.24 95.1685 29.0533 95.2219 28.84C95.3019 28.6267 95.3419 28.3867 95.3419 28.12C95.3685 27.8533 95.3819 27.6 95.3819 27.36V15.64ZM115.314 23.08L113.634 27.36L112.034 31.2H112.074V34H105.354V9.32H112.074V21.4H112.314L114.194 16.48L115.594 12.84V9.32H122.274V34H115.594V23.08H115.314ZM141.359 23.84V25.64C141.359 28.4933 140.719 30.6667 139.439 32.16C138.185 33.6533 136.132 34.4 133.279 34.4C131.545 34.4 130.132 34.1733 129.039 33.72C127.972 33.24 127.132 32.6133 126.519 31.84C125.905 31.04 125.479 30.1333 125.239 29.12C125.025 28.08 124.919 26.9867 124.919 25.84V17.68C124.919 11.84 127.705 8.92 133.279 8.92C134.559 8.92 135.705 9.06667 136.719 9.36C137.732 9.65333 138.572 10.1467 139.239 10.84C139.932 11.5067 140.452 12.4 140.799 13.52C141.172 14.6133 141.359 15.9733 141.359 17.6V18.64H134.439V15.44C134.439 14.9867 134.372 14.5333 134.239 14.08C134.132 13.6 133.825 13.36 133.319 13.36C133.052 13.36 132.839 13.4267 132.679 13.56C132.519 13.6933 132.399 13.8667 132.319 14.08C132.239 14.2667 132.185 14.4933 132.159 14.76C132.159 15 132.159 15.2267 132.159 15.44V28.08C132.159 28.56 132.212 29.0133 132.319 29.44C132.452 29.84 132.785 30.04 133.319 30.04C133.825 30.04 134.132 29.84 134.239 29.44C134.372 29.0133 134.439 28.56 134.439 28.08V23.84H141.359ZM153.593 13.96V34H146.393V13.96H142.673V9.32H157.313V13.96H153.593Z" fill="#E73131"/>
<path d="M2.37598 47.7412H4.15332C4.24902 46.7568 4.59766 45.9661 5.19922 45.3691C5.80534 44.7676 6.56868 44.4668 7.48926 44.4668C8.4554 44.4668 9.24609 44.7926 9.86133 45.4443C10.4766 46.096 10.8092 46.9437 10.8594 47.9873L10.8662 48.3838C10.8662 49.1038 10.7249 49.7533 10.4424 50.332C10.1598 50.9108 9.76335 51.3574 9.25293 51.6719C8.74251 51.9818 8.15918 52.1367 7.50293 52.1367C6.55046 52.1367 5.77116 51.8268 5.16504 51.207C4.55892 50.5827 4.2194 49.7738 4.14648 48.7803H2.37598V52H1.11133V44.6035H2.37598V47.7412ZM5.39746 48.3838C5.39746 49.2041 5.58659 49.8626 5.96484 50.3594C6.34766 50.8561 6.86035 51.1045 7.50293 51.1045C8.14551 51.1045 8.65365 50.8516 9.02734 50.3457C9.4056 49.8398 9.59473 49.1357 9.59473 48.2334C9.59473 47.4268 9.40332 46.7705 9.02051 46.2646C8.6377 45.7588 8.12728 45.5059 7.48926 45.5059C6.86035 45.5059 6.35449 45.7542 5.97168 46.251C5.58887 46.7477 5.39746 47.4587 5.39746 48.3838ZM18.6729 48.3838C18.6729 49.5094 18.4154 50.4163 17.9004 51.1045C17.3854 51.7926 16.6882 52.1367 15.8086 52.1367C14.9108 52.1367 14.2044 51.8519 13.6895 51.2822V54.8438H12.4248V44.6035H13.5801L13.6416 45.4238C14.1566 44.7858 14.8721 44.4668 15.7881 44.4668C16.6768 44.4668 17.3786 44.8018 17.8936 45.4717C18.4131 46.1416 18.6729 47.0736 18.6729 48.2676V48.3838ZM17.4082 48.2402C17.4082 47.4062 17.2305 46.7477 16.875 46.2646C16.5195 45.7816 16.0319 45.54 15.4121 45.54C14.6465 45.54 14.0723 45.8796 13.6895 46.5586V50.0928C14.0677 50.7673 14.6465 51.1045 15.4258 51.1045C16.0319 51.1045 16.5127 50.8652 16.8682 50.3867C17.2282 49.9036 17.4082 49.1882 17.4082 48.2402ZM25.0713 44.6035H26.3359V52H25.0713V46.6064L21.6602 52H20.3955V44.6035H21.6602V50.0039L25.0713 44.6035ZM28.3047 50.9678L28.7422 50.4277C29.2344 49.7897 29.5146 48.8327 29.583 47.5566L29.6992 44.6035H34.4639V50.9678H35.4141V54.1738H34.1494V52H28.9883V54.1738H27.7236L27.7305 50.9678H28.3047ZM29.8018 50.9678H33.1992V45.7725H30.9229L30.8477 47.5361C30.7702 49.0081 30.4215 50.152 29.8018 50.9678ZM41.6006 44.6035H42.8652V52H41.6006V46.6064L38.1895 52H36.9248V44.6035H38.1895V50.0039L41.6006 44.6035ZM50.4805 52H49.209V49.3203C48.653 49.4661 48.0833 49.5391 47.5 49.5391C46.5749 49.5391 45.8685 49.3021 45.3809 48.8281C44.8978 48.3542 44.6517 47.6797 44.6426 46.8047V44.5967H45.9072V46.8457C45.93 47.9486 46.4609 48.5 47.5 48.5C48.0833 48.5 48.653 48.4271 49.209 48.2812V44.6035H50.4805V52ZM55.5801 52.1367C54.5775 52.1367 53.7617 51.8086 53.1328 51.1523C52.5039 50.4915 52.1895 49.6097 52.1895 48.5068V48.2744C52.1895 47.5407 52.3285 46.8867 52.6064 46.3125C52.889 45.7337 53.2809 45.2826 53.7822 44.959C54.2881 44.6309 54.835 44.4668 55.4229 44.4668C56.3844 44.4668 57.1318 44.7835 57.665 45.417C58.1982 46.0505 58.4648 46.9574 58.4648 48.1377V48.6641H53.4541C53.4723 49.3932 53.6842 49.9834 54.0898 50.4346C54.5 50.8812 55.0195 51.1045 55.6484 51.1045C56.0951 51.1045 56.4733 51.0133 56.7832 50.8311C57.0931 50.6488 57.3643 50.4072 57.5967 50.1064L58.3691 50.708C57.7493 51.6605 56.8197 52.1367 55.5801 52.1367ZM55.4229 45.5059C54.9124 45.5059 54.484 45.6927 54.1377 46.0664C53.7913 46.4355 53.5771 46.9551 53.4951 47.625H57.2002V47.5293C57.1637 46.8867 56.9906 46.39 56.6807 46.0391C56.3708 45.6836 55.9515 45.5059 55.4229 45.5059ZM62.9014 51.1045C63.3525 51.1045 63.7467 50.9678 64.084 50.6943C64.4212 50.4209 64.6081 50.0791 64.6445 49.6689H65.8408C65.818 50.0928 65.6722 50.4961 65.4033 50.8789C65.1344 51.2617 64.7744 51.5671 64.3232 51.7949C63.8766 52.0228 63.4027 52.1367 62.9014 52.1367C61.8942 52.1367 61.0921 51.8018 60.4951 51.1318C59.9027 50.4574 59.6064 49.5368 59.6064 48.3701V48.1582C59.6064 47.4382 59.7386 46.7979 60.0029 46.2373C60.2673 45.6768 60.6455 45.2415 61.1377 44.9316C61.6344 44.6217 62.2201 44.4668 62.8945 44.4668C63.724 44.4668 64.4121 44.7152 64.959 45.2119C65.5104 45.7087 65.8044 46.3535 65.8408 47.1465H64.6445C64.6081 46.668 64.4258 46.276 64.0977 45.9707C63.7741 45.6608 63.373 45.5059 62.8945 45.5059C62.252 45.5059 61.7529 45.7383 61.3975 46.2031C61.0465 46.6634 60.8711 47.3311 60.8711 48.2061V48.4453C60.8711 49.2975 61.0465 49.9538 61.3975 50.4141C61.7484 50.8743 62.2497 51.1045 62.9014 51.1045ZM69.5664 48.8486H68.6436V52H67.3721V44.6035H68.6436V47.7344H69.4707L71.959 44.6035H73.4902L70.5645 48.1582L73.7363 52H72.1299L69.5664 48.8486ZM79.3896 52C79.3167 51.8542 79.2575 51.5944 79.2119 51.2207C78.624 51.8314 77.9222 52.1367 77.1064 52.1367C76.3773 52.1367 75.778 51.9316 75.3086 51.5215C74.8438 51.1068 74.6113 50.5827 74.6113 49.9492C74.6113 49.179 74.903 48.582 75.4863 48.1582C76.0742 47.7298 76.8991 47.5156 77.9609 47.5156H79.1914V46.9346C79.1914 46.4925 79.0592 46.1416 78.7949 45.8818C78.5306 45.6175 78.141 45.4854 77.626 45.4854C77.1748 45.4854 76.7965 45.5993 76.4912 45.8271C76.1859 46.055 76.0332 46.3307 76.0332 46.6543H74.7617C74.7617 46.2852 74.8916 45.9297 75.1514 45.5879C75.4157 45.2415 75.7712 44.9681 76.2178 44.7676C76.6689 44.5671 77.1634 44.4668 77.7012 44.4668C78.5534 44.4668 79.221 44.681 79.7041 45.1094C80.1872 45.5332 80.4378 46.1188 80.4561 46.8662V50.2705C80.4561 50.9495 80.5426 51.4896 80.7158 51.8906V52H79.3896ZM77.291 51.0361C77.6875 51.0361 78.0635 50.9336 78.4189 50.7285C78.7744 50.5234 79.0319 50.2568 79.1914 49.9287V48.4111H78.2002C76.6507 48.4111 75.876 48.8646 75.876 49.7715C75.876 50.168 76.0081 50.4779 76.2725 50.7012C76.5368 50.9245 76.8763 51.0361 77.291 51.0361ZM88.0918 44.6035V52H86.8203V49.1221H84.9131L83.1699 52H81.8027L83.6621 48.9307C83.1882 48.7575 82.8236 48.4909 82.5684 48.1309C82.3177 47.7663 82.1924 47.3424 82.1924 46.8594C82.1924 46.1849 82.4453 45.6426 82.9512 45.2324C83.457 44.8177 84.1338 44.6081 84.9814 44.6035H88.0918ZM83.4639 46.873C83.4639 47.2331 83.5869 47.5247 83.833 47.748C84.0791 47.9668 84.4049 48.0785 84.8105 48.083H86.8203V45.6289H85.002C84.5326 45.6289 84.1589 45.7451 83.8809 45.9775C83.6029 46.2054 83.4639 46.5039 83.4639 46.873ZM95.8984 48.8486H94.9756V52H93.7041V44.6035H94.9756V47.7344H95.8027L98.291 44.6035H99.8223L96.8965 48.1582L100.068 52H98.4619L95.8984 48.8486ZM100.67 48.2334C100.67 47.5088 100.811 46.8571 101.094 46.2783C101.381 45.6995 101.777 45.2529 102.283 44.9385C102.794 44.624 103.375 44.4668 104.026 44.4668C105.034 44.4668 105.847 44.8154 106.467 45.5127C107.091 46.21 107.403 47.1374 107.403 48.2949V48.3838C107.403 49.1038 107.264 49.751 106.986 50.3252C106.713 50.8949 106.319 51.3392 105.804 51.6582C105.293 51.9772 104.705 52.1367 104.04 52.1367C103.037 52.1367 102.224 51.7881 101.6 51.0908C100.98 50.3936 100.67 49.4707 100.67 48.3223V48.2334ZM101.941 48.3838C101.941 49.2041 102.131 49.8626 102.509 50.3594C102.892 50.8561 103.402 51.1045 104.04 51.1045C104.683 51.1045 105.193 50.8538 105.571 50.3525C105.95 49.8467 106.139 49.1403 106.139 48.2334C106.139 47.4222 105.945 46.766 105.558 46.2646C105.175 45.7588 104.664 45.5059 104.026 45.5059C103.402 45.5059 102.898 45.7542 102.516 46.251C102.133 46.7477 101.941 47.4587 101.941 48.3838ZM113.248 50.3252L115.764 44.6035H117.343V52H116.078V46.6201L113.686 52H112.811L110.37 46.5039V52H109.105V44.6035H110.746L113.248 50.3252ZM125.43 52H124.165V45.6494H120.761V52H119.489V44.6035H125.43V52ZM132.026 52C131.953 51.8542 131.894 51.5944 131.849 51.2207C131.261 51.8314 130.559 52.1367 129.743 52.1367C129.014 52.1367 128.415 51.9316 127.945 51.5215C127.48 51.1068 127.248 50.5827 127.248 49.9492C127.248 49.179 127.54 48.582 128.123 48.1582C128.711 47.7298 129.536 47.5156 130.598 47.5156H131.828V46.9346C131.828 46.4925 131.696 46.1416 131.432 45.8818C131.167 45.6175 130.778 45.4854 130.263 45.4854C129.812 45.4854 129.433 45.5993 129.128 45.8271C128.823 46.055 128.67 46.3307 128.67 46.6543H127.398C127.398 46.2852 127.528 45.9297 127.788 45.5879C128.052 45.2415 128.408 44.9681 128.854 44.7676C129.306 44.5671 129.8 44.4668 130.338 44.4668C131.19 44.4668 131.858 44.681 132.341 45.1094C132.824 45.5332 133.075 46.1188 133.093 46.8662V50.2705C133.093 50.9495 133.179 51.4896 133.353 51.8906V52H132.026ZM129.928 51.0361C130.324 51.0361 130.7 50.9336 131.056 50.7285C131.411 50.5234 131.669 50.2568 131.828 49.9287V48.4111H130.837C129.287 48.4111 128.513 48.8646 128.513 49.7715C128.513 50.168 128.645 50.4779 128.909 50.7012C129.174 50.9245 129.513 51.0361 129.928 51.0361ZM141.118 52H139.854V48.8418H136.456V52H135.185V44.6035H136.456V47.8096H139.854V44.6035H141.118V52ZM147.94 44.6035H149.205V52H147.94V46.6064L144.529 52H143.265V44.6035H144.529V50.0039L147.94 44.6035ZM156.889 44.6035V52H155.617V49.1221H153.71L151.967 52H150.6L152.459 48.9307C151.985 48.7575 151.62 48.4909 151.365 48.1309C151.115 47.7663 150.989 47.3424 150.989 46.8594C150.989 46.1849 151.242 45.6426 151.748 45.2324C152.254 44.8177 152.931 44.6081 153.778 44.6035H156.889ZM152.261 46.873C152.261 47.2331 152.384 47.5247 152.63 47.748C152.876 47.9668 153.202 48.0785 153.607 48.083H155.617V45.6289H153.799C153.329 45.6289 152.956 45.7451 152.678 45.9775C152.4 46.2054 152.261 46.5039 152.261 46.873Z" fill="#333333"/>
</svg>
