<svg xmlns="http://www.w3.org/2000/svg" xmlns:xlink="http://www.w3.org/1999/xlink" width="174" height="44" viewBox="0 0 174 44"><defs><path id="ecmaa" d="M374.24 87.77V68.41h17.7v19.36h-3.49V71.62h-10.73v16.15zm39.7-5.67l2.13 2.66c-.42.52-2.75 3.11-7.77 3.11a9.72 9.72 0 0 1-9.78-9.81 9.7 9.7 0 0 1 9.71-9.76c5.23 0 9.44 4.22 9.44 9.76 0 .41-.03 1-.07 1.24h-15.5a6.42 6.42 0 0 0 6.2 5.22 7.12 7.12 0 0 0 5.65-2.42zm-11.7-6.02h11.64c-.42-2.31-2.79-4.32-5.65-4.32a6.1 6.1 0 0 0-5.99 4.32zm25.74 3.22v8.47h-3.48V68.41h3.48v7.67h5.96c.49-.07 1.08-.69 1.4-1.52l1.18-3.04c.9-2 2.64-3.11 4.53-3.11l1.35.34v3.12h-1.35c-.56 0-1.12.48-1.47 1.34l-1.18 3.05a3.83 3.83 0 0 1-1.36 1.41c.31.1 1.05.8 1.29 1.28l1.91 4.12c.39.86.91 1.35 1.47 1.35h1.36v3.1l-1.36.35c-1.92 0-3.59-1.1-4.53-3.1l-1.92-4.12c-.38-.8-.83-1.28-1.39-1.35zm24.1-10.9h15.75v19.37h-3.48V71.62h-6.73l-2.75 13.14c-.42 2.04-2.65 3.11-4.53 3.11l-1.7-.34v-3.11h1.7c.56 0 1.3-.49 1.47-1.35l2.37-11.45h-2.1zM495 78.07c0 5.42-4.7 9.81-10.1 9.81-5.44 0-10.14-4.39-10.14-9.81 0-5.36 4.7-9.76 10.14-9.76 5.4 0 10.1 4.4 10.1 9.76zm-16.76 0c0 3.52 3.1 6.36 6.66 6.36 3.55 0 6.62-2.84 6.62-6.36 0-3.46-3.07-6.3-6.62-6.3-3.56 0-6.66 2.84-6.66 6.3z"/><path id="ecmab" d="M360 76.2c.07.75-.1 2.5-.37 3.4a20.28 20.28 0 0 1-19.5 14.43c-2.05 0-3.98-.3-5.84-.85L326.73 98v-9.05c0-1.23-2.7-2.66-3.73-4.23-.03-.05-.13-.1-.16-.15l-.19-.3a14.3 14.3 0 0 1-1.17-2.2s-.15-.32-.19-.45v-.02c-1.54-4.8 4.06-7.05 3.74-10.25 1.86 2.15-2.35 8.1 1.04 8.82 3.38.71 3.44-3.72 3.27-7-.11-2.4-.27-3.16-.41-6.44-.14-3.23 1.47-5.43 3.64-7.69-1.8 2.68-3.03 6.31-.21 6.74 3.46.52 1.72-7.36 5.68-11.7l.1-.1-.03.1c-1.55 5.08.15 5.58.04 10.5-.05 2.11-.9 4.25-1.52 5.82-.62 1.58-1.7 5.96 1.46 6.8 3.15.85 5.52-5.26 4.4-7.81 6.61 4.38 1.79 11.79 4.96 11.9 1.22-.03 1.52-2.63 1.3-4.44-.52-4.52-.84-5.75 1.2-8.48-1.07 3.26-.22 7.7 2.16 7.28 1.64-.29 1.35-2.31 1.3-5.1-.05-4.37 1.9-6.35 1.9-6.35-2.26 5.62 4.02 4.66 4.69 12zm-20.28-5.93c-.44-1.55.37-3.04.83-3.79 1.12-1.8 1.66-2.57 1.56-4.04.79.99.83 2.06-.22 4.54-1.12 2.62-.46 5.38-.46 5.38s-1.35-.8-1.71-2.1z"/></defs><g><g transform="translate(-321 -54)"><use fill="#fff" xlink:href="#ecmaa"/></g><g transform="translate(-321 -54)"><use fill="#e00814" xlink:href="#ecmab"/></g></g></svg>