<svg xmlns="http://www.w3.org/2000/svg" xmlns:xlink="http://www.w3.org/1999/xlink" width="13" height="13" viewBox="0 0 13 13"><defs><path id="6dqda" d="M570.98 2151.69v4.3c0 .14-.12.26-.27.26h-2.97c-.58 0-.99-.38-1.06-.83a5936.61 5936.61 0 0 1-.01-3.74c0-.14.11-.25.25-.25h3.8c.14 0 .26.11.26.26zm5.35 0v3.52a1 1 0 0 1-.8 1.02c-.1.02-.19.02-.28.02h-2.96a.26.26 0 0 1-.26-.26v-4.3c0-.15.12-.26.26-.26h3.78c.15 0 .26.11.26.26zm.92-4.4v2.54c0 .3-.25.55-.56.55h-4.3a.35.35 0 0 1-.35-.34v-1.18a.47.47 0 0 0-.47-.47h-.11c-.26 0-.47.21-.47.47v1.18c0 .19-.16.34-.35.34h-4.33a.55.55 0 0 1-.55-.55v-.35-.07-1.27a13.8 13.8 0 0 0 0-.49v-.36c0-.3.25-.55.55-.55h2.34v-.03l-.1-.09c-.46-.5-.63-1.06-.39-1.7a1.5 1.5 0 0 1 1.25-.98c.76-.12 1.34.2 1.76.82.1.15.19.32.28.49l.04.09.3-.54c.29-.43.66-.74 1.18-.85.84-.18 1.8.32 1.95 1.28a1.57 1.57 0 0 1-.5 1.42c-.03.03-.05.05-.07.1h2.34c.31 0 .56.24.56.54zm-6.22-.64c-.07-.27-.13-.55-.22-.82a1.93 1.93 0 0 0-.55-.9.86.86 0 0 0-.8-.18c-.6.14-.8.82-.37 1.29.16.17.35.3.56.39.43.2.9.27 1.38.3v-.08zm3.08-1.35c-.15-.57-.9-.78-1.36-.37-.13.1-.24.24-.32.38-.27.43-.39.92-.47 1.42a3.57 3.57 0 0 0 1.53-.38c.16-.08.3-.2.43-.33.18-.2.26-.45.19-.72z"/></defs><g><g transform="translate(-565 -2144)"><use fill="#e00814" xlink:href="#6dqda"/></g></g></svg>