<svg xmlns="http://www.w3.org/2000/svg" xmlns:xlink="http://www.w3.org/1999/xlink" width="27" height="42" viewBox="0 0 27 42"><defs><path id="x0cya" d="M957.22 1054.46h7.63l-6.66 11.95c-.3.54-.3 1.2.02 1.72.32.53.89.85 1.5.85h7.2l-11.52 13.63 2.7-7.9c.19-.53.1-1.12-.23-1.57a1.76 1.76 0 0 0-1.42-.72h-5.82zm-5.13 37.46l19.91-23.56c.44-.52.53-1.24.24-1.85-.28-.6-.9-1-1.58-1h-7.98l6.67-11.94c.3-.54.29-1.2-.03-1.72a1.76 1.76 0 0 0-1.5-.85H956c-.74 0-1.4.46-1.65 1.14l-7.87 21.42c-.2.53-.12 1.12.2 1.58.34.47.87.74 1.44.74H954l-4.91 14.38c-.27.79.07 1.65.8 2.06a1.76 1.76 0 0 0 2.2-.4z"/></defs><g><g transform="translate(-946 -1051)"><use fill="#e00814" xlink:href="#x0cya"/></g></g></svg>