<svg xmlns="http://www.w3.org/2000/svg" xmlns:xlink="http://www.w3.org/1999/xlink" width="18" height="18" viewBox="0 0 18 18"><defs><path id="8603a" d="M1491 1233a9 9 0 0 1 18 0 9 9 0 0 1-18 0z"/><path id="8603b" d="M1504 1230.8c.01.43-.05.85-.2 1.26-.1.3-.28.6-.52.84-.23.22-.5.4-.81.52-.32.13-.65.22-.98.28-.38.06-.75.1-1.13.11-.39.02-.78.02-1.18.02h-.3v.82h2.9v1.52h-2.9v1.83h-2.17v-1.84h-.71v-1.51h.71v-.82h-.71v-1.59h.71v-4.23h3.09c.84-.04 1.68.05 2.49.27.51.17.95.51 1.25.95.31.47.47 1.02.46 1.57zm-2.23.13c.02-.3-.08-.59-.27-.82-.21-.23-.5-.36-.82-.4l-.52-.02h-1.27v2.54h.13c.64.03 1.3-.01 1.93-.12.25-.07.47-.22.61-.43.15-.22.22-.48.21-.75z"/></defs><g><g transform="translate(-1491 -1224)"><use fill="#e00814" xlink:href="#8603a"/></g><g transform="translate(-1491 -1224)"><use fill="#fff" xlink:href="#8603b"/></g></g></svg>