<svg xmlns="http://www.w3.org/2000/svg" xmlns:xlink="http://www.w3.org/1999/xlink" width="36" height="37" viewBox="0 0 36 37"><defs><path id="1opya" d="M614.46 1067.5h2.46v17.3h-2.46zm5.92 19.04v-20.77c0-.96-.77-1.73-1.73-1.73h-5.92c-.96 0-1.73.77-1.73 1.73v20.77c0 .95.77 1.73 1.73 1.73h5.92c.96 0 1.73-.78 1.73-1.73z"/><path id="1opyb" d="M601.82 1056.25h2.45v28.56h-2.45zm5.92 30.29v-32.02c0-.96-.78-1.74-1.74-1.74h-5.92c-.95 0-1.73.78-1.73 1.74v32.02c0 .95.78 1.73 1.73 1.73H606c.96 0 1.74-.78 1.74-1.73z"/><path id="1opyc" d="M589.17 1076.15h2.45v8.66h-2.45zm5.92 10.39v-12.12c0-.95-.77-1.73-1.73-1.73h-5.92c-.96 0-1.74.78-1.74 1.73v12.12c0 .95.78 1.73 1.74 1.73h5.92c.96 0 1.73-.78 1.73-1.73z"/></defs><g><g transform="translate(-585 -1052)"><use fill="#e00814" xlink:href="#1opya"/></g><g transform="translate(-585 -1052)"><use fill="#e00814" xlink:href="#1opyb"/></g><g transform="translate(-585 -1052)"><use fill="#e00814" xlink:href="#1opyc"/></g></g></svg>