<svg xmlns="http://www.w3.org/2000/svg" xmlns:xlink="http://www.w3.org/1999/xlink" width="34" height="42" viewBox="0 0 34 42"><defs><path id="9jtja" d="M1350.1 1206.7a45.24 45.24 0 0 0 13.44 3.93v16.88c0 4.45-2.61 8.52-6.66 10.37l-6.77 3.09-6.77-3.1a11.43 11.43 0 0 1-6.67-10.36v-16.88a45.24 45.24 0 0 0 13.44-3.93zm.73 37.75l7.49-3.42a14.9 14.9 0 0 0 8.7-13.52v-18.41c0-.89-.68-1.63-1.56-1.72a42.05 42.05 0 0 1-14.57-4.16 1.74 1.74 0 0 0-1.57 0 42.05 42.05 0 0 1-14.57 4.16c-.88.09-1.55.83-1.55 1.72v18.41c0 5.8 3.41 11.1 8.7 13.52l7.48 3.42a1.74 1.74 0 0 0 1.45 0z"/></defs><g><g transform="translate(-1333 -1203)"><use fill="#e00814" xlink:href="#9jtja"/></g></g></svg>