<svg xmlns="http://www.w3.org/2000/svg" xmlns:xlink="http://www.w3.org/1999/xlink" width="35" height="34" viewBox="0 0 35 34"><defs><path id="qiiwa" d="M1352.02 1057.3c6.8.8 12.1 6.6 12.1 13.59a13.7 13.7 0 0 1-27.33 1.6h13.62c.89 0 1.61-.71 1.61-1.6zm-1.61 30.48c9.33 0 16.93-7.58 16.93-16.9 0-9.3-7.6-16.89-16.93-16.89-.9 0-1.62.72-1.62 1.61v13.68h-13.7c-.9 0-1.62.72-1.62 1.6 0 9.32 7.6 16.9 16.94 16.9z"/></defs><g><g transform="translate(-1333 -1054)"><use fill="#e00814" xlink:href="#qiiwa"/></g></g></svg>