<svg xmlns="http://www.w3.org/2000/svg" xmlns:xlink="http://www.w3.org/1999/xlink" width="38" height="43" viewBox="0 0 38 43"><defs><path id="ck9ja" d="M618.84 1221.59a15.25 15.25 0 0 1-20.46 14.33 1.72 1.72 0 0 0-1.98.6 10.1 10.1 0 0 1-4.75 3.62c.98-2.73 1.1-5.58.33-8.52a1.74 1.74 0 0 0-.3-.63 15.25 15.25 0 0 1 11.96-24.68c8.38 0 15.2 6.85 15.2 15.28zm-30.2 22.79c4.12-.49 7.4-2.1 9.75-4.82a18.71 18.71 0 0 0 23.89-17.98 18.71 18.71 0 0 0-18.65-18.73 18.71 18.71 0 0 0-18.64 18.74c0 4.1 1.3 7.97 3.74 11.24.73 3.13.16 6.04-1.72 8.87a1.74 1.74 0 0 0 1.63 2.68z"/></defs><g><g transform="translate(-585 -1202)"><use fill="#e00814" xlink:href="#ck9ja"/></g></g></svg>